<?xml version="1.0" encoding="UTF-8"?>
<svg width="127.37mm" height="123.3mm" version="1.1" viewBox="0 0 127.37 123.3" xmlns="http://www.w3.org/2000/svg" xmlns:cc="http://creativecommons.org/ns#" xmlns:dc="http://purl.org/dc/elements/1.1/" xmlns:rdf="http://www.w3.org/1999/02/22-rdf-syntax-ns#">
 <defs>
  <clipPath id="clipPath210">
   <path d="M 0,595.276 H 841.89 V 0 H 0 Z"/>
  </clipPath>
 </defs>
 <metadata>
  <rdf:RDF>
   <cc:Work rdf:about="">
    <dc:format>image/svg+xml</dc:format>
    <dc:type rdf:resource="http://purl.org/dc/dcmitype/StillImage"/>
    <dc:title/>
   </cc:Work>
  </rdf:RDF>
 </metadata>
 <g transform="matrix(.35278 0 0 -.35278 -14.14 139.32)">
  <g clip-path="url(#clipPath210)">
   <g transform="translate(342.93 167.75)">
    <path d="m0 0c0-67.564-54.77-122.33-122.33-122.33s-122.33 54.769-122.33 122.33c0 67.563 54.77 122.33 122.33 122.33s122.33-54.77 122.33-122.33" fill="#a60b29"/>
   </g>
   <g transform="translate(336.32 167.75)">
    <path d="m0 0c0-63.91-51.811-115.72-115.72-115.72-63.911 0-115.72 51.812-115.72 115.72z" fill="#db0720"/>
    <path d="m0 0c0-51.205-33.259-94.643-79.351-109.89v109.89z" fill="#272774"/>
   </g>
   <g transform="translate(104.88 167.75)">
    <path d="m0 0c0-51.205 33.257-94.643 79.351-109.89v109.89z" fill="#fff"/>
   </g>
   <g transform="translate(336.32 167.75)">
    <path d="m0 0c0 63.911-51.811 115.72-115.72 115.72-63.911 0-115.72-51.809-115.72-115.72z"/>
   </g>
   <g transform="translate(220.94 227.95)">
    <path d="m0 0c2.53 0.459 2.962 7.438 2.962 7.438 0.413 8.473-1.998 21.629-1.998 21.629-0.551 2.274 0.482 0.277 0.482 0.277 5.442-11.987 4.271-21.629 4.271-21.629-0.207-8.611 2.617-7.646 2.617-7.646 2.963 0.413 2.893 7.92 2.893 7.92-0.139 12.4-8.886 21.974-8.886 21.974-1.791 2.48 0.276 0.552 0.276 0.552 11.228-10.057 11.228-21.974 11.228-21.974-0.137-8.817 2.754-8.541 2.754-8.541 3.444 0.069 3.102 8.266 3.102 8.266-2.342 16.118-17.084 23.42-17.084 23.42-1.446 0.894-0.138 0.482-0.138 0.482 17.771-7.164 19.563-23.971 19.563-23.971 1.446-9.024 4.615-8.059 4.615-8.059 2.203 0 2.619 3.582 2.619 3.582 0 16.433-13.434 29.721-29.621 29.757h-0.136c-16.188-0.036-29.621-13.324-29.621-29.757 0 0 0.415-3.582 2.619-3.582 0 0 3.168-0.965 4.615 8.059 0 0 1.79 16.807 19.562 23.971 0 0 1.309 0.412-0.137-0.482 0 0-14.741-7.302-17.082-23.42 0 0-0.345-8.197 3.099-8.266 0 0 2.892-0.276 2.756 8.541 0 0 0 11.917 11.227 21.974 0 0 2.066 1.928 0.276-0.552 0 0-8.748-9.574-8.886-21.974 0 0-0.069-7.507 2.893-7.92 0 0 2.825-0.965 2.617 7.646 0 0-1.171 9.642 4.271 21.629 0 0 1.033 1.997 0.482-0.277 0 0-2.412-13.156-1.996-21.629 0 0 0.411-7.094 2.96-7.438 0 0 0.446-0.07 0.826 0" fill="#fff"/>
   </g>
   <g transform="translate(224.63 184.95)">
    <path d="m0 0c0-2.198-1.782-3.978-3.979-3.978h-0.108c-2.199 0-3.98 1.78-3.98 3.978v9.616c0 2.198 1.781 3.98 3.98 3.98h0.108c2.197 0 3.979-1.782 3.979-3.98z" fill="#fff"/>
   </g>
   <g transform="translate(220.6 198.19)">
    <path d="m0 0-1.791-0.048-25.486 30.079 0.965 0.231 22.96-26.176-14.235 25.992 1.056 0.138 14.465-25.257-7.026 25.027 1.056 0.092 7.347-24.705 0.184 24.43 0.459 0.046z" fill="#fff"/>
   </g>
   <g transform="translate(220.33 198.24)">
    <path d="m0 0 2.021-0.094 25.486 30.079-0.965 0.231-22.96-26.176 14.235 25.992-1.056 0.138-14.465-25.257 7.026 25.027-1.056 0.092-7.347-24.705-0.184 24.43-0.644 0.092z" fill="#fff"/>
   </g>
   <g transform="translate(169.22 221.06)">
    <path d="m0 0s23.213-0.758 40.157-22.8c0 0 1.171-1.721 3.376-0.619 0 0 2.067 1.446-0.275 4.132 0 0-10.952 15.912-30.928 23.696 0 0-9.437 3.445-14.328-1.379 0 0-2.204-2.617 1.998-3.03" fill="#a2cbed"/>
   </g>
   <g transform="translate(271.95 221.06)">
    <path d="m0 0s-23.211-0.758-40.158-22.8c0 0-1.169-1.721-3.374-0.619 0 0-2.066 1.446 0.275 4.132 0 0 10.952 15.912 30.928 23.696 0 0 9.435 3.445 14.327-1.379 0 0 2.205-2.617-1.998-3.03" fill="#a2cbed"/>
   </g>
   <g transform="translate(168.89 216.79)">
    <path d="m0 0s1.654 2.157-2.02 2.295c0 0-3.215 0.184-4.593-1.285l-32.328-32.328s-4.821-4.41 1.378-4.455l2.572-0.045s2.204-0.138 4.5 2.387z" fill="#a2cbed"/>
   </g>
   <g transform="translate(180.07 215.04)">
    <path d="m0 0s1.576 2.058-1.925 2.188c0 0-3.064 0.176-4.376-1.224l-30.81-30.809s-4.596-4.204 1.313-4.248l2.451-0.042s2.099-0.131 4.288 2.278z" fill="#a2cbed"/>
   </g>
   <g transform="translate(188.92 212.32)">
    <path d="m0 0s1.384 1.885-1.777 1.937c0 0-2.767 0.103-3.925-1.188l-27.21-28.362s-4.066-3.877 1.263-3.807l2.212 7e-3s1.897-0.079 3.826 2.134z" fill="#a2cbed"/>
   </g>
   <g transform="translate(195.01 208.87)">
    <path d="m0 0s1.129 1.665-1.589 1.608c0 0-2.384 0-3.337-1.145l-22.486-25.264s-3.371-3.465 1.209-3.231l1.902 0.075s1.633-5e-3 3.22 1.958z" fill="#a2cbed"/>
   </g>
   <g transform="translate(200.39 204.63)">
    <path d="m0 0s0.887 1.396-1.355 1.272c0 0-2.301-0.095-3.3-1.231l-17.612-21.024s-2.378-2.996 1.394-2.678l1.567 0.115s1.511-0.038 2.77 1.612z" fill="#a2cbed"/>
   </g>
   <g transform="translate(205.13 199.79)">
    <path d="m0 0s0.643 0.818-1.089 0.948c0 0-1.552 0.19-3.446-1.371l-12.848-16.253s-1.686-2.517 1.661-2.2l1.222 0.131s1.052 0.066 1.995 1.379z" fill="#a2cbed"/>
   </g>
   <g transform="translate(208.51 193.95)">
    <path d="m0 0s0.402 0.736-0.86 0.823c0 0-1.679-4e-3 -2.67-1.083l-8.182-10.867s-1.257-2.064 1.515-1.781l0.609 0.029s0.917 0.152 1.524 1.048z" fill="#a2cbed"/>
   </g>
   <g transform="translate(272.52 216.79)">
    <path d="m0 0s-1.652 2.157 2.021 2.295c0 0 3.213 0.184 4.592-1.285l32.328-32.328s4.822-4.41-1.377-4.455l-2.571-0.045s-2.205-0.138-4.503 2.387z" fill="#a2cbed"/>
   </g>
   <g transform="translate(261.35 215.04)">
    <path d="m0 0s-1.574 2.058 1.927 2.188c0 0 3.062 0.176 4.376-1.224l30.809-30.809s4.597-4.204-1.313-4.248l-2.45-0.042s-2.101-0.131-4.288 2.278z" fill="#a2cbed"/>
   </g>
   <g transform="translate(252.49 212.32)">
    <path d="m0 0s-1.382 1.885 1.777 1.937c0 0 2.767 0.103 3.925-1.188l27.21-28.362s4.066-3.877-1.263-3.807l-2.212 7e-3s-1.896-0.079-3.825 2.134z" fill="#a2cbed"/>
   </g>
   <g transform="translate(246.4 208.87)">
    <path d="m0 0s-1.127 1.665 1.591 1.608c0 0 2.382 0 3.335-1.145l22.487-25.264s3.371-3.465-1.21-3.231l-1.9 0.075s-1.636-5e-3 -3.222 1.958z" fill="#a2cbed"/>
   </g>
   <g transform="translate(241.03 204.63)">
    <path d="m0 0s-0.886 1.396 1.355 1.272c0 0 2.301-0.095 3.3-1.231l17.612-21.024s2.378-2.996-1.394-2.678l-1.567 0.115s-1.511-0.038-2.769 1.612z" fill="#a2cbed"/>
   </g>
   <g transform="translate(236.29 199.79)">
    <path d="m0 0s-0.641 0.818 1.091 0.948c0 0 1.55 0.19 3.446-1.371l12.846-16.253s1.688-2.517-1.66-2.2l-1.222 0.131s-1.052 0.066-1.994 1.379z" fill="#a2cbed"/>
   </g>
   <g transform="translate(232.93 194.08)">
    <path d="m0 0s-0.403 0.74 0.858 0.832c0 0 1.677 0 2.664-1.09l8.151-10.969s1.251-2.084-1.517-1.802l-0.607 0.029s-0.917 0.15-1.521 1.053z" fill="#a2cbed"/>
   </g>
   <g transform="translate(220.6 394.91)">
    <path d="m0 0c81.457-0.96 130.98-37.835 160.76-66.07 0 0 4.937-4.706 0.231-9.411l-10.183-10.029s20.675-22.912 28.659-38.418c0 0 3.356-5.478-1.851-8.679l-39.691-23.26s-4.282-4.05-8.332 2.083c0 0-12.15 22.45-32.285 38.881 0 0-5.786 3.472-1.389 9.027l3.588 4.628c3.008 4.397-1.389 6.943-1.389 6.943-46.287 34.715-97.665 32.054-97.665 32.054h-0.895s-51.378 2.661-97.665-32.054c0 0-4.397-2.546-1.389-6.943l3.587-4.628c4.398-5.555-1.388-9.027-1.388-9.027-20.135-16.431-32.286-38.881-32.286-38.881-4.049-6.133-8.331-2.083-8.331-2.083l-39.691 23.26c-5.207 3.201-1.852 8.679-1.852 8.679 7.985 15.506 28.66 38.418 28.66 38.418l-10.184 10.029c-4.705 4.705 0.232 9.411 0.232 9.411 29.778 28.235 78.781 65.114 160.24 66.074z" fill="#a60b29"/>
   </g>
   <g transform="translate(325.51 281.63)">
    <path d="m0 0c15.352-13.654 27.155-32.709 27.155-32.709 3.24-5.246 7.175-2.006 7.175-2.006l30.279 17.705c5.978 3.433 1.736 8.679 1.736 8.679-12.421 19.98-24.687 31.629-24.687 31.629l-16.74-17.165s-3.395-4.05-12.498-2.816l-9.566 1.312s-9.72 1.311-4.474-3.24z" fill="#12100b"/>
   </g>
   <g transform="translate(221.67 388.55)">
    <path d="m0 0s86.942 2.777 149.66-59.401c0 0 5.863-4.321 0.463-9.875l-24.995-25.766s-4.166-4.783-10.029 0.617c0 0-43.047 44.898-115.41 45.052h-1.512c-72.362-0.154-115.41-45.052-115.41-45.052-5.863-5.4-10.029-0.617-10.029-0.617l-24.995 25.766c-5.4 5.554 0.463 9.875 0.463 9.875 62.611 62.255 149.44 59.401 149.44 59.401z" fill="#12100b"/>
   </g>
   <g transform="translate(115.71 281.63)">
    <path d="m0 0c-15.352-13.654-27.155-32.709-27.155-32.709-3.24-5.246-7.175-2.006-7.175-2.006l-30.279 17.705c-5.978 3.433-1.736 8.679-1.736 8.679 12.421 19.98 24.687 31.629 24.687 31.629l16.74-17.165s3.395-4.05 12.498-2.816l9.566 1.312s9.72 1.311 4.474-3.24z" fill="#12100b"/>
   </g>
   <g transform="translate(104.63 305.6)">
    <path d="m0 0-23.157 18.324 4.816 3.903 9.428-8.375c2.336-2.068 5.035-4.448 7.46-6.831l0.067 0.054c-1.854 2.9-3.669 5.886-5.316 8.734l-6.224 10.806 4.783 3.875 13.026-26.534z" fill="#fff"/>
   </g>
   <g transform="translate(109.1 352.04)">
    <path d="m0 0-1.78-6.915-3.335-2.164 0.345 5.984zm10.91-34.863-6.006 9.251-14.989 11.471 5.02 3.258 5.397-4.701c1.43-1.263 3.061-2.753 4.583-4.312l0.071 0.046c-0.853 1.943-1.6 3.955-2.287 5.956l-2.243 6.596 4.877 3.166 4.152-18.251 6.122-9.43z" fill="#fff"/>
   </g>
   <g transform="translate(129.24 329.7)">
    <path d="m0 0c1.32-0.04 3.282 0.446 4.725 1.192 2.354 1.218 2.865 3.023 2.001 4.693-0.963 1.86-2.573 2.183-5.464 2.468-4.593 0.32-7.317 2.329-8.514 4.645-2.122 4.1-1.155 8.932 4.198 11.701 1.671 0.864 3.502 1.234 4.496 1.171l1.423-4.704c-0.957 0.083-2.275-0.069-3.718-0.815-2.126-1.101-2.483-2.922-1.776-4.289 0.785-1.518 1.958-1.923 5.593-2.16 4.44-0.302 7.029-2.236 8.423-4.932 2.416-4.67 0.551-9.533-4.461-12.125-2.051-1.061-4.338-1.57-5.428-1.508z" fill="#fff"/>
   </g>
   <g transform="translate(152.81 346.34)">
    <path d="m0 0-3.065 5.276c-0.915 1.526-2.314 4.056-3.252 5.754l-0.119-0.046c0.42-1.901 1.108-4.845 1.434-6.508l1.177-5.966zm-2.76-5.754 1.196-6.602-5.06-1.972-4.645 29.12 6.255 2.436 15.681-24.818-5.06-1.972-3.545 5.685z" fill="#fff"/>
   </g>
   <g transform="translate(171.42 345.57)">
    <path d="m0 0c0.27-0.019 0.684 0.089 0.973 0.164 2.607 0.679 4.216 3.836 2.214 11.532-1.486 5.71-3.88 8.798-7.149 7.948-0.372-0.097-0.745-0.194-1.043-0.404zm-11.449 21.76c1.28 0.686 3.212 1.41 5.364 1.97 3.517 0.915 6.173 0.723 8.383-0.47 2.96-1.527 5.16-4.887 6.569-10.307 1.465-5.626 1.061-10.018-0.821-12.804-1.388-2.305-3.934-3.895-7.824-4.907-1.696-0.441-3.436-0.717-4.544-0.873z" fill="#fff"/>
   </g>
   <g transform="translate(184.2 373.49)">
    <path d="m0 0 5.546 0.77 1.782-12.829 0.085 0.013c0.3 1.25 0.589 2.584 0.884 3.877l2.542 9.673 6.097 0.848-4.671-13.294 8.717-15.231-6.054-0.841-5.789 11.236-0.948-2.505 1.317-9.483-5.546-0.771z" fill="#fff"/>
   </g>
   <g transform="translate(211.8 361.94)">
    <path d="m0 0c0.18-6.54 1.511-9.839 3.776-9.776 2.351 0.065 3.131 4.362 2.97 10.218-0.138 5.044-1.033 9.597-3.556 9.527-2.222-0.061-3.361-3.771-3.19-9.969m12.594 0.86c0.299-10.856-3.427-15.364-8.897-15.515-6.54-0.179-9.295 6.674-9.512 14.581-0.216 7.865 2.717 14.746 9.085 14.921 6.967 0.192 9.144-7.406 9.324-13.987" fill="#fff"/>
   </g>
   <g transform="translate(233.05 347.3)">
    <path d="m0 0-3.947 29.26 6.176-0.535 0.971-12.569c0.245-3.111 0.536-6.697 0.628-10.094l0.086-8e-3c0.678 3.374 1.444 6.782 2.235 9.976l3.021 12.095 6.131-0.531-9.041-28.135z" fill="#fff"/>
   </g>
   <g transform="translate(268.5 377.61)">
    <path d="m0 0-6.084-3.74-3.904 0.76 4.406 4.065zm-16.368-32.665 2.106 10.829-2.819 18.667 5.876-1.142 0.618-7.133c0.153-1.902 0.291-4.107 0.302-6.288l0.084-0.016c0.735 1.992 1.597 3.959 2.493 5.876l2.967 6.304 5.708-1.11-9.691-16.017-2.145-11.038z" fill="#fff"/>
   </g>
   <g transform="translate(284.62 352.22)">
    <path d="m0 0c0.213-0.167 0.494-0.268 0.817-0.382 2.657-0.952 4.541 0.508 5.449 3.045 0.85 2.376 0.546 4.574-1.911 5.452-0.483 0.173-0.994 0.264-1.36 0.259zm-0.867 14.206c1.604-0.21 3.689-0.729 5.702-1.45 3.141-1.122 5.438-2.444 6.619-4.728 1.107-1.986 1.025-4.499 0.204-6.795-1.051-2.938-2.671-4.674-4.627-5.701-2.325-1.165-5.351-0.992-7.525-0.215-0.362 0.131-0.725 0.26-1.047 0.375l-3.615-10.105-5.273 1.886z" fill="#fff"/>
   </g>
   <g transform="translate(305.62 358.49)">
    <path d="m0 0 5.051-2.423-10.412-21.703 6.67-3.199-2.054-4.279-11.719 5.621z" fill="#fff"/>
   </g>
   <g transform="translate(327.36 347.12)">
    <path d="m0 0-9.802-15.953c-2.216-3.605-1.795-5.369-0.556-6.13 1.383-0.851 2.971-0.472 5.254 3.243l9.803 15.953 4.771-2.933-9.288-15.114c-3.872-6.3-8.344-8.27-13.078-5.36-5.136 3.155-4.968 7.919-1.185 14.074l9.31 15.151z" fill="#fff"/>
   </g>
   <g transform="translate(344.08 336.17)">
    <path d="m0 0 4.396-3.469-8.021-10.171 0.066-0.052c1.111 0.648 2.274 1.365 3.412 2.046l8.74 4.868 4.833-3.813-12.827-5.836-4.952-16.839-4.8 3.787 4.098 11.958-2.463-1.052-5.931-7.518-4.397 3.468z" fill="#fff"/>
   </g>
  </g>
 </g>
</svg>
