<?xml version="1.0" encoding="UTF-8"?>
<svg width="86.311mm" height="86.311mm" version="1.1" viewBox="0 0 86.311 86.311" xmlns="http://www.w3.org/2000/svg" xmlns:cc="http://creativecommons.org/ns#" xmlns:dc="http://purl.org/dc/elements/1.1/" xmlns:rdf="http://www.w3.org/1999/02/22-rdf-syntax-ns#">
 <defs>
  <clipPath id="clipPath210">
   <path d="M 0,595.276 H 841.89 V 0 H 0 Z"/>
  </clipPath>
 </defs>
 <metadata>
  <rdf:RDF>
   <cc:Work rdf:about="">
    <dc:format>image/svg+xml</dc:format>
    <dc:type rdf:resource="http://purl.org/dc/dcmitype/StillImage"/>
    <dc:title/>
   </cc:Work>
  </rdf:RDF>
 </metadata>
 <g transform="matrix(.35278 0 0 -.35278 -34.668 102.33)">
  <g clip-path="url(#clipPath210)">
   <g transform="translate(342.93,167.75)">
    <path d="m0 0c0-67.564-54.77-122.33-122.33-122.33s-122.33 54.769-122.33 122.33c0 67.563 54.77 122.33 122.33 122.33s122.33-54.77 122.33-122.33" fill="#a60b29"/>
   </g>
   <g transform="translate(336.32,167.75)">
    <path d="m0 0c0-63.91-51.811-115.72-115.72-115.72-63.911 0-115.72 51.812-115.72 115.72z" fill="#db0720"/>
    <path d="m0 0c0-51.205-33.259-94.643-79.351-109.89v109.89z" fill="#272774"/>
   </g>
   <g transform="translate(104.88,167.75)">
    <path d="m0 0c0-51.205 33.257-94.643 79.351-109.89v109.89z" fill="#fff"/>
   </g>
   <g transform="translate(336.32,167.75)">
    <path d="m0 0c0 63.911-51.811 115.72-115.72 115.72-63.911 0-115.72-51.809-115.72-115.72z"/>
   </g>
   <g transform="translate(220.94,227.95)">
    <path d="m0 0c2.53 0.459 2.962 7.438 2.962 7.438 0.413 8.473-1.998 21.629-1.998 21.629-0.551 2.274 0.482 0.277 0.482 0.277 5.442-11.987 4.271-21.629 4.271-21.629-0.207-8.611 2.617-7.646 2.617-7.646 2.963 0.413 2.893 7.92 2.893 7.92-0.139 12.4-8.886 21.974-8.886 21.974-1.791 2.48 0.276 0.552 0.276 0.552 11.228-10.057 11.228-21.974 11.228-21.974-0.137-8.817 2.754-8.541 2.754-8.541 3.444 0.069 3.102 8.266 3.102 8.266-2.342 16.118-17.084 23.42-17.084 23.42-1.446 0.894-0.138 0.482-0.138 0.482 17.771-7.164 19.563-23.971 19.563-23.971 1.446-9.024 4.615-8.059 4.615-8.059 2.203 0 2.619 3.582 2.619 3.582 0 16.433-13.434 29.721-29.621 29.757h-0.136c-16.188-0.036-29.621-13.324-29.621-29.757 0 0 0.415-3.582 2.619-3.582 0 0 3.168-0.965 4.615 8.059 0 0 1.79 16.807 19.562 23.971 0 0 1.309 0.412-0.137-0.482 0 0-14.741-7.302-17.082-23.42 0 0-0.345-8.197 3.099-8.266 0 0 2.892-0.276 2.756 8.541 0 0 0 11.917 11.227 21.974 0 0 2.066 1.928 0.276-0.552 0 0-8.748-9.574-8.886-21.974 0 0-0.069-7.507 2.893-7.92 0 0 2.825-0.965 2.617 7.646 0 0-1.171 9.642 4.271 21.629 0 0 1.033 1.997 0.482-0.277 0 0-2.412-13.156-1.996-21.629 0 0 0.411-7.094 2.96-7.438 0 0 0.446-0.07 0.826 0" fill="#fff"/>
   </g>
   <g transform="translate(224.63,184.95)">
    <path d="m0 0c0-2.198-1.782-3.978-3.979-3.978h-0.108c-2.199 0-3.98 1.78-3.98 3.978v9.616c0 2.198 1.781 3.98 3.98 3.98h0.108c2.197 0 3.979-1.782 3.979-3.98z" fill="#fff"/>
   </g>
   <g transform="translate(220.6,198.19)">
    <path d="m0 0-1.791-0.048-25.486 30.079 0.965 0.231 22.96-26.176-14.235 25.992 1.056 0.138 14.465-25.257-7.026 25.027 1.056 0.092 7.347-24.705 0.184 24.43 0.459 0.046z" fill="#fff"/>
   </g>
   <g transform="translate(220.33,198.24)">
    <path d="m0 0 2.021-0.094 25.486 30.079-0.965 0.231-22.96-26.176 14.235 25.992-1.056 0.138-14.465-25.257 7.026 25.027-1.056 0.092-7.347-24.705-0.184 24.43-0.644 0.092z" fill="#fff"/>
   </g>
   <g transform="translate(169.22,221.06)">
    <path d="m0 0s23.213-0.758 40.157-22.8c0 0 1.171-1.721 3.376-0.619 0 0 2.067 1.446-0.275 4.132 0 0-10.952 15.912-30.928 23.696 0 0-9.437 3.445-14.328-1.379 0 0-2.204-2.617 1.998-3.03" fill="#a2cbed"/>
   </g>
   <g transform="translate(271.95,221.06)">
    <path d="m0 0s-23.211-0.758-40.158-22.8c0 0-1.169-1.721-3.374-0.619 0 0-2.066 1.446 0.275 4.132 0 0 10.952 15.912 30.928 23.696 0 0 9.435 3.445 14.327-1.379 0 0 2.205-2.617-1.998-3.03" fill="#a2cbed"/>
   </g>
   <g transform="translate(168.89,216.79)">
    <path d="m0 0s1.654 2.157-2.02 2.295c0 0-3.215 0.184-4.593-1.285l-32.328-32.328s-4.821-4.41 1.378-4.455l2.572-0.045s2.204-0.138 4.5 2.387z" fill="#a2cbed"/>
   </g>
   <g transform="translate(180.07,215.04)">
    <path d="m0 0s1.576 2.058-1.925 2.188c0 0-3.064 0.176-4.376-1.224l-30.81-30.809s-4.596-4.204 1.313-4.248l2.451-0.042s2.099-0.131 4.288 2.278z" fill="#a2cbed"/>
   </g>
   <g transform="translate(188.92,212.32)">
    <path d="m0 0s1.384 1.885-1.777 1.937c0 0-2.767 0.103-3.925-1.188l-27.21-28.362s-4.066-3.877 1.263-3.807l2.212 7e-3s1.897-0.079 3.826 2.134z" fill="#a2cbed"/>
   </g>
   <g transform="translate(195.01,208.87)">
    <path d="m0 0s1.129 1.665-1.589 1.608c0 0-2.384 0-3.337-1.145l-22.486-25.264s-3.371-3.465 1.209-3.231l1.902 0.075s1.633-5e-3 3.22 1.958z" fill="#a2cbed"/>
   </g>
   <g transform="translate(200.39,204.63)">
    <path d="m0 0s0.887 1.396-1.355 1.272c0 0-2.301-0.095-3.3-1.231l-17.612-21.024s-2.378-2.996 1.394-2.678l1.567 0.115s1.511-0.038 2.77 1.612z" fill="#a2cbed"/>
   </g>
   <g transform="translate(205.13,199.79)">
    <path d="m0 0s0.643 0.818-1.089 0.948c0 0-1.552 0.19-3.446-1.371l-12.848-16.253s-1.686-2.517 1.661-2.2l1.222 0.131s1.052 0.066 1.995 1.379z" fill="#a2cbed"/>
   </g>
   <g transform="translate(208.51,193.95)">
    <path d="m0 0s0.402 0.736-0.86 0.823c0 0-1.679-4e-3 -2.67-1.083l-8.182-10.867s-1.257-2.064 1.515-1.781l0.609 0.029s0.917 0.152 1.524 1.048z" fill="#a2cbed"/>
   </g>
   <g transform="translate(272.52,216.79)">
    <path d="m0 0s-1.652 2.157 2.021 2.295c0 0 3.213 0.184 4.592-1.285l32.328-32.328s4.822-4.41-1.377-4.455l-2.571-0.045s-2.205-0.138-4.503 2.387z" fill="#a2cbed"/>
   </g>
   <g transform="translate(261.35,215.04)">
    <path d="m0 0s-1.574 2.058 1.927 2.188c0 0 3.062 0.176 4.376-1.224l30.809-30.809s4.597-4.204-1.313-4.248l-2.45-0.042s-2.101-0.131-4.288 2.278z" fill="#a2cbed"/>
   </g>
   <g transform="translate(252.49,212.32)">
    <path d="m0 0s-1.382 1.885 1.777 1.937c0 0 2.767 0.103 3.925-1.188l27.21-28.362s4.066-3.877-1.263-3.807l-2.212 7e-3s-1.896-0.079-3.825 2.134z" fill="#a2cbed"/>
   </g>
   <g transform="translate(246.4,208.87)">
    <path d="m0 0s-1.127 1.665 1.591 1.608c0 0 2.382 0 3.335-1.145l22.487-25.264s3.371-3.465-1.21-3.231l-1.9 0.075s-1.636-5e-3 -3.222 1.958z" fill="#a2cbed"/>
   </g>
   <g transform="translate(241.03,204.63)">
    <path d="m0 0s-0.886 1.396 1.355 1.272c0 0 2.301-0.095 3.3-1.231l17.612-21.024s2.378-2.996-1.394-2.678l-1.567 0.115s-1.511-0.038-2.769 1.612z" fill="#a2cbed"/>
   </g>
   <g transform="translate(236.29,199.79)">
    <path d="m0 0s-0.641 0.818 1.091 0.948c0 0 1.55 0.19 3.446-1.371l12.846-16.253s1.688-2.517-1.66-2.2l-1.222 0.131s-1.052 0.066-1.994 1.379z" fill="#a2cbed"/>
   </g>
   <g transform="translate(232.93,194.08)">
    <path d="m0 0s-0.403 0.74 0.858 0.832c0 0 1.677 0 2.664-1.09l8.151-10.969s1.251-2.084-1.517-1.802l-0.607 0.029s-0.917 0.15-1.521 1.053z" fill="#a2cbed"/>
   </g>
  </g>
 </g>
</svg>
