<svg width="33.848mm" height="33.635mm" version="1.1" viewBox="0 0 33.848 33.635" xmlns="http://www.w3.org/2000/svg">
 <g transform="translate(-88.909 -131.35)">
  <path d="m122.76 164.98h-33.848v-33.635h33.848z" fill="#231f20"/>
  <path d="m120.85 163.11h-30.029v-29.81h30.029z" fill="#748870"/>
  <g fill="#363434">
   <path d="m94.793 163.14h-1.5896v-29.81h1.5896z"/>
   <path d="m98.175 163.11h-1.5896v-29.81h1.5896z"/>
   <path d="m101.56 163.07h-1.5896v-29.81h1.5896z"/>
   <path d="m104.94 163.04h-1.5896v-29.035h1.5896z"/>
   <path d="m108.32 163h-1.5896v-29.035h1.5896z"/>
   <path d="m111.7 162.97h-1.5896v-29.035h1.5896z"/>
   <path d="m115.08 162.93h-1.5896v-28.792h1.5896z"/>
   <path d="m118.46 163.14h-1.5896v-28.792h1.5896z"/>
  </g>
  <path d="m118.46 160.72h-25.259v-25.041h25.259zm-27.644 2.3848h30.029v-29.81h-30.029z" fill="#748870"/>
 </g>
</svg>
