<svg width="33.635mm" height="33.848mm" version="1.1" viewBox="0 0 33.635 33.848" xmlns="http://www.w3.org/2000/svg">
 <g transform="translate(-92.796 -43.552)">
  <path d="m126.43 77.4h-33.635v-33.848h33.635z" fill="#231f20"/>
  <path d="m124.55 75.49h-29.81v-30.028h29.81z" fill="#748870"/>
  <g fill="#363434">
   <path d="m124.59 73.106h-29.81v-1.5896h29.81z"/>
   <path d="m124.55 69.724h-29.81v-1.5896h29.81z"/>
   <path d="m124.52 66.343h-29.81v-1.5896h29.81z"/>
   <path d="m124.48 62.962h-29.035v-1.5896h29.035z"/>
   <path d="m124.45 59.58h-29.035v-1.5896h29.035z"/>
   <path d="m124.41 56.199h-29.035v-1.5896h29.035z"/>
   <path d="m124.38 52.817h-28.792v-1.5896h28.792z"/>
   <path d="m124.58 49.436h-28.792v-1.5896h28.792z"/>
  </g>
  <path d="m122.17 73.106h-25.04v-25.259h25.04zm-27.425 2.3848h29.81v-30.028h-29.81z" fill="#748870"/>
 </g>
</svg>
