<svg width="33.849mm" height="33.635mm" version="1.1" viewBox="0 0 33.849 33.635" xmlns="http://www.w3.org/2000/svg">
 <g transform="translate(-88.909 -131.35)">
  <path d="m122.76 164.98h-33.849v-33.635h33.849z" fill="#231f20"/>
  <path d="m120.85 163.11h-30.029v-29.81h30.029z" fill="#748870"/>
  <g transform="matrix(.35278 0 0 -.35278 102.37 161.48)">
   <path d="m0 0-2.965-2.965-28.012 28.012 2.965 2.965z" fill="#363434"/>
  </g>
  <g transform="matrix(.35278 0 0 -.35278 106.83 161.49)">
   <path d="m0 0-2.965-2.965-40.611 40.611 2.965 2.965z" fill="#363434"/>
  </g>
  <g transform="matrix(.35278 0 0 -.35278 98.175 161.69)">
   <path d="m0 0-2.965-2.965-16.041 16.041 2.965 2.965z" fill="#363434"/>
  </g>
  <g transform="matrix(.35278 0 0 -.35278 111.41 161.61)">
   <path d="m0 0-2.965-2.965-53.263 53.263 2.965 2.965z" fill="#363434"/>
  </g>
  <g transform="matrix(.35278 0 0 -.35278 115.71 161.47)">
   <path d="m0 0-2.965-2.965-65.493 65.493 2.965 2.965z" fill="#363434"/>
  </g>
  <g transform="matrix(.35278 0 0 -.35278 120.34 161.65)">
   <path d="m0 0-2.965-2.965-76.303 76.303 2.965 2.965z" fill="#363434"/>
  </g>
  <g transform="matrix(.35278 0 0 -.35278 120.19 157.05)">
   <path d="m0 0-2.965-2.965-65.054 65.054 2.965 2.965z" fill="#363434"/>
  </g>
  <g transform="matrix(.35278 0 0 -.35278 120.26 152.67)">
   <path d="m0 0-2.965-2.965-53.079 53.079 2.964 2.965z" fill="#363434"/>
  </g>
  <g transform="matrix(.35278 0 0 -.35278 120.38 148.34)">
   <path d="m0 0-2.965-2.965-40.192 40.193 2.965 2.964z" fill="#363434"/>
  </g>
  <g transform="matrix(.35278 0 0 -.35278 120.29 143.8)">
   <path d="m0 0-2.965-2.965-27.719 27.719 2.965 2.965z" fill="#363434"/>
  </g>
  <g transform="matrix(.35278 0 0 -.35278 120.51 139.57)">
   <path d="m0 0-2.965-2.965-16.273 16.273 2.965 2.965z" fill="#363434"/>
  </g>
  <path d="m118.46 160.72h-25.259v-25.041h25.259zm-27.644 2.3844h30.029v-29.81h-30.029z" fill="#748870"/>
 </g>
</svg>
