<svg width="34.269mm" height="33.635mm" version="1.1" viewBox="0 0 34.269 33.635" xmlns="http://www.w3.org/2000/svg">
 <g transform="translate(-130.28 -137.4)">
  <path d="m164.55 171.03h-34.269v-33.635h34.269z" fill="#231f20"/>
  <path d="m162.64 169.15h-30.449v-29.81h30.449z" fill="#748870"/>
  <g fill="#363434">
   <path d="m136.18 168.51h-1.6129v-27.948h1.6129z"/>
   <path d="m139.61 168.48h-1.6129v-27.948h1.6129z"/>
   <path d="m143.05 168.45h-1.6129v-27.948h1.6129z"/>
   <path d="m146.48 168.41h-1.6126v-27.221h1.6126z"/>
   <path d="m149.91 168.38h-1.6129v-27.221h1.6129z"/>
   <path d="m153.34 168.35h-1.6129v-27.221h1.6129z"/>
   <path d="m156.77 168.31h-1.6129v-26.994h1.6129z"/>
   <path d="m160.2 168.31h-1.6129v-26.994h1.6129z"/>
   <path d="m160.46 163.39h-26.422v-1.5741h26.422z"/>
   <path d="m160.41 160.05h-26.422v-1.5741h26.422z"/>
   <path d="m161.1 166.74h-26.422v-1.5741h26.422z"/>
   <path d="m160.36 156.7h-26.422v-1.5741h26.422z"/>
   <path d="m160.3 153.35h-26.422v-1.5741h26.422z"/>
   <path d="m160.25 150h-26.422v-1.5741h26.422z"/>
   <path d="m160.2 146.65h-26.422v-1.5741h26.422z"/>
   <path d="m160.15 143.3h-26.422v-1.5741h26.422z"/>
  </g>
  <path d="m160.25 166.77h-25.679v-25.04h25.679zm-28.065 2.3848h30.449v-29.81h-30.449z" fill="#748870"/>
 </g>
</svg>
