<svg width="33.428mm" height="33.635mm" version="1.1" viewBox="0 0 33.428 33.635" xmlns="http://www.w3.org/2000/svg">
 <g transform="translate(-90.631 -127.57)">
  <path d="m124.06 161.2h-33.428v-33.635h33.428z" fill="#231f20"/>
  <path d="m122.15 159.33h-29.608v-29.81h29.608z" fill="#748870"/>
  <g fill="#363434">
   <path d="m96.697 131.62h-1.8193v25.633h1.8193z"/>
   <path d="m100.57 131.67h-1.8193v25.581h1.8193z"/>
   <path d="m104.35 131.83h-1.6499v25.581h1.6499z"/>
   <path d="m108.31 131.78h-1.8193v25.581h1.8193z"/>
   <path d="m112.18 131.83h-1.8193v25.581h1.8193z"/>
   <path d="m116.05 131.88h-1.8193v25.581h1.8193z"/>
   <path d="m119.92 131.93h-1.8193v25.581h1.8193z"/>
  </g>
  <g transform="matrix(.35278 0 0 -.35278 95.913 131.63)">
   <path d="m0 0-3.861-3.733 69.167-71.54 3.861 3.732z" fill="#363434"/>
  </g>
  <g transform="matrix(.35278 0 0 -.35278 102.85 130.92)">
   <path d="m0 0-7.707 0.246 52.96-54.777 0.174 7.546z" fill="#363434"/>
  </g>
  <g transform="matrix(.35278 0 0 -.35278 110.79 131.01)">
   <path d="m0 0-7.504 0.035 30.802-31.859v7.725z" fill="#363434"/>
  </g>
  <g transform="matrix(.35278 0 0 -.35278 118.25 130.85)">
   <path d="m0 0-5.944-1.577 9.555-9.884 0.02 7.706z" fill="#363434"/>
  </g>
  <g transform="matrix(.35278 0 0 -.35278 93.727 152.63)">
   <path d="m0 0-0.209-7.51 8.261-8.545 4.093 3.492z" fill="#363434"/>
  </g>
  <g transform="matrix(.35278 0 0 -.35278 93.607 144.73)">
   <path d="m0 0-0.322-7.393 28.172-29.138 7.504-0.036z" fill="#363434"/>
  </g>
  <g transform="matrix(.35278 0 0 -.35278 94.415 137.84)">
   <path d="m0 0-0.024-7.7 48.083-49.734 7.619-0.154z" fill="#363434"/>
  </g>
  <path d="m119.76 156.94h-24.838v-25.04h24.838zm-27.223 2.3851h29.608v-29.81h-29.608z" fill="#748870"/>
 </g>
</svg>
