<svg width="33.849mm" height="33.635mm" version="1.1" viewBox="0 0 33.849 33.635" xmlns="http://www.w3.org/2000/svg">
 <g transform="translate(-32.213 -231.89)">
  <path d="m66.061 265.53h-33.849v-33.635h33.849z" fill="#231f20"/>
  <path d="m64.151 263.65h-30.029v-29.81h30.029z" fill="#748870"/>
  <g fill="#363434">
   <path d="m35.02 259.79c0-0.41874 0.33972-0.75882 0.75882-0.75882s0.75882 0.34008 0.75882 0.75882c0 0.4191-0.33972 0.75883-0.75882 0.75883s-0.75882-0.33973-0.75882-0.75883"/>
   <path d="m38.379 259.79c0-0.41874 0.33972-0.75882 0.75882-0.75882s0.75882 0.34008 0.75882 0.75882c0 0.4191-0.33972 0.75883-0.75882 0.75883s-0.75882-0.33973-0.75882-0.75883"/>
   <path d="m41.738 259.79c0-0.41874 0.33972-0.75882 0.75847-0.75882 0.41945 0 0.75918 0.34008 0.75918 0.75882 0 0.4191-0.33972 0.75883-0.75918 0.75883-0.41875 0-0.75847-0.33973-0.75847-0.75883"/>
   <path d="m45.097 259.79c0-0.41874 0.33972-0.75882 0.75882-0.75882s0.75882 0.34008 0.75882 0.75882c0 0.4191-0.33972 0.75883-0.75882 0.75883s-0.75882-0.33973-0.75882-0.75883"/>
   <path d="m48.456 259.79c0-0.41874 0.34008-0.75882 0.75882-0.75882 0.4191 0 0.75882 0.34008 0.75882 0.75882 0 0.4191-0.33972 0.75883-0.75882 0.75883-0.41875 0-0.75882-0.33973-0.75882-0.75883"/>
   <path d="m51.815 259.79c0-0.41874 0.33972-0.75882 0.75847-0.75882 0.41945 0 0.75918 0.34008 0.75918 0.75882 0 0.4191-0.33972 0.75883-0.75918 0.75883-0.41875 0-0.75847-0.33973-0.75847-0.75883"/>
   <path d="m55.174 259.79c0-0.41874 0.33972-0.75882 0.75882-0.75882s0.75882 0.34008 0.75882 0.75882c0 0.4191-0.33972 0.75883-0.75882 0.75883s-0.75882-0.33973-0.75882-0.75883"/>
   <path d="m36.599 257.36c0-0.4191 0.33972-0.75883 0.75882-0.75883s0.75882 0.33973 0.75882 0.75883-0.33972 0.75882-0.75882 0.75882-0.75882-0.33972-0.75882-0.75882"/>
   <path d="m39.958 257.36c0-0.4191 0.33972-0.75883 0.75847-0.75883 0.41945 0 0.75918 0.33973 0.75918 0.75883s-0.33972 0.75882-0.75918 0.75882c-0.41875 0-0.75847-0.33972-0.75847-0.75882"/>
   <path d="m43.317 257.36c0-0.4191 0.33972-0.75883 0.75882-0.75883s0.75882 0.33973 0.75882 0.75883-0.33972 0.75882-0.75882 0.75882-0.75882-0.33972-0.75882-0.75882"/>
   <path d="m46.676 257.36c0-0.4191 0.33972-0.75883 0.75847-0.75883 0.41945 0 0.75918 0.33973 0.75918 0.75883s-0.33972 0.75882-0.75918 0.75882c-0.41875 0-0.75847-0.33972-0.75847-0.75882"/>
   <path d="m50.035 257.36c0-0.4191 0.33972-0.75883 0.75847-0.75883 0.41945 0 0.75918 0.33973 0.75918 0.75883s-0.33972 0.75882-0.75918 0.75882c-0.41875 0-0.75847-0.33972-0.75847-0.75882"/>
   <path d="m53.394 257.36c0-0.4191 0.33972-0.75883 0.75882-0.75883s0.75882 0.33973 0.75882 0.75883-0.33972 0.75882-0.75882 0.75882-0.75882-0.33972-0.75882-0.75882"/>
   <path d="m35.02 254.98c0-0.4191 0.33972-0.75883 0.75882-0.75883s0.75882 0.33973 0.75882 0.75883-0.33972 0.75882-0.75882 0.75882-0.75882-0.33972-0.75882-0.75882"/>
   <path d="m38.379 254.98c0-0.4191 0.33972-0.75883 0.75882-0.75883s0.75882 0.33973 0.75882 0.75883-0.33972 0.75882-0.75882 0.75882-0.75882-0.33972-0.75882-0.75882"/>
   <path d="m41.738 254.98c0-0.4191 0.33972-0.75883 0.75847-0.75883 0.41945 0 0.75918 0.33973 0.75918 0.75883s-0.33972 0.75882-0.75918 0.75882c-0.41875 0-0.75847-0.33972-0.75847-0.75882"/>
   <path d="m45.097 254.98c0-0.4191 0.33972-0.75883 0.75882-0.75883s0.75882 0.33973 0.75882 0.75883-0.33972 0.75882-0.75882 0.75882-0.75882-0.33972-0.75882-0.75882"/>
   <path d="m48.456 254.98c0-0.4191 0.34008-0.75883 0.75882-0.75883 0.4191 0 0.75882 0.33973 0.75882 0.75883s-0.33972 0.75882-0.75882 0.75882c-0.41875 0-0.75882-0.33972-0.75882-0.75882"/>
   <path d="m51.815 254.98c0-0.4191 0.33972-0.75883 0.75847-0.75883 0.41945 0 0.75918 0.33973 0.75918 0.75883s-0.33972 0.75882-0.75918 0.75882c-0.41875 0-0.75847-0.33972-0.75847-0.75882"/>
   <path d="m55.174 254.98c0-0.4191 0.33972-0.75883 0.75882-0.75883s0.75882 0.33973 0.75882 0.75883-0.33972 0.75882-0.75882 0.75882-0.75882-0.33972-0.75882-0.75882"/>
   <path d="m36.599 252.55c0-0.41875 0.33972-0.75883 0.75882-0.75883s0.75882 0.34008 0.75882 0.75883c0 0.4191-0.33972 0.75882-0.75882 0.75882s-0.75882-0.33972-0.75882-0.75882"/>
   <path d="m39.958 252.55c0-0.41875 0.33972-0.75883 0.75847-0.75883 0.41945 0 0.75918 0.34008 0.75918 0.75883 0 0.4191-0.33972 0.75882-0.75918 0.75882-0.41875 0-0.75847-0.33972-0.75847-0.75882"/>
   <path d="m43.317 252.55c0-0.41875 0.33972-0.75883 0.75882-0.75883s0.75882 0.34008 0.75882 0.75883c0 0.4191-0.33972 0.75882-0.75882 0.75882s-0.75882-0.33972-0.75882-0.75882"/>
   <path d="m46.676 252.55c0-0.41875 0.33972-0.75883 0.75847-0.75883 0.41945 0 0.75918 0.34008 0.75918 0.75883 0 0.4191-0.33972 0.75882-0.75918 0.75882-0.41875 0-0.75847-0.33972-0.75847-0.75882"/>
   <path d="m50.035 252.55c0-0.41875 0.33972-0.75883 0.75847-0.75883 0.41945 0 0.75918 0.34008 0.75918 0.75883 0 0.4191-0.33972 0.75882-0.75918 0.75882-0.41875 0-0.75847-0.33972-0.75847-0.75882"/>
   <path d="m53.394 252.55c0-0.41875 0.33972-0.75883 0.75882-0.75883s0.75882 0.34008 0.75882 0.75883c0 0.4191-0.33972 0.75882-0.75882 0.75882s-0.75882-0.33972-0.75882-0.75882"/>
   <path d="m35.02 250.16c0-0.4191 0.33972-0.75883 0.75882-0.75883s0.75882 0.33973 0.75882 0.75883-0.33972 0.75882-0.75882 0.75882-0.75882-0.33972-0.75882-0.75882"/>
   <path d="m38.379 250.16c0-0.4191 0.33972-0.75883 0.75882-0.75883s0.75882 0.33973 0.75882 0.75883-0.33972 0.75882-0.75882 0.75882-0.75882-0.33972-0.75882-0.75882"/>
   <path d="m41.738 250.16c0-0.4191 0.33972-0.75883 0.75847-0.75883 0.41945 0 0.75918 0.33973 0.75918 0.75883s-0.33972 0.75882-0.75918 0.75882c-0.41875 0-0.75847-0.33972-0.75847-0.75882"/>
   <path d="m45.097 250.16c0-0.4191 0.33972-0.75883 0.75882-0.75883s0.75882 0.33973 0.75882 0.75883-0.33972 0.75882-0.75882 0.75882-0.75882-0.33972-0.75882-0.75882"/>
   <path d="m48.456 250.16c0-0.4191 0.34008-0.75883 0.75882-0.75883 0.4191 0 0.75882 0.33973 0.75882 0.75883s-0.33972 0.75882-0.75882 0.75882c-0.41875 0-0.75882-0.33972-0.75882-0.75882"/>
   <path d="m51.815 250.16c0-0.4191 0.33972-0.75883 0.75847-0.75883 0.41945 0 0.75918 0.33973 0.75918 0.75883s-0.33972 0.75882-0.75918 0.75882c-0.41875 0-0.75847-0.33972-0.75847-0.75882"/>
   <path d="m55.174 250.16c0-0.4191 0.33972-0.75883 0.75882-0.75883s0.75882 0.33973 0.75882 0.75883-0.33972 0.75882-0.75882 0.75882-0.75882-0.33972-0.75882-0.75882"/>
   <path d="m58.533 259.79c0-0.41874 0.33972-0.75882 0.75847-0.75882 0.41945 0 0.75918 0.34008 0.75918 0.75882 0 0.4191-0.33972 0.75883-0.75918 0.75883-0.41875 0-0.75847-0.33973-0.75847-0.75883"/>
   <path d="m61.892 259.79c0-0.41874 0.33972-0.75882 0.75882-0.75882s0.75882 0.34008 0.75882 0.75882c0 0.4191-0.33972 0.75883-0.75882 0.75883s-0.75882-0.33973-0.75882-0.75883"/>
   <path d="m56.753 257.36c0-0.4191 0.33972-0.75883 0.75847-0.75883 0.41945 0 0.75918 0.33973 0.75918 0.75883s-0.33972 0.75882-0.75918 0.75882c-0.41875 0-0.75847-0.33972-0.75847-0.75882"/>
   <path d="m60.112 257.36c0-0.4191 0.33972-0.75883 0.75882-0.75883s0.75882 0.33973 0.75882 0.75883-0.33972 0.75882-0.75882 0.75882-0.75882-0.33972-0.75882-0.75882"/>
   <path d="m36.599 262.17c0-0.4191 0.33972-0.75883 0.75882-0.75883s0.75882 0.33973 0.75882 0.75883-0.33972 0.75882-0.75882 0.75882-0.75882-0.33972-0.75882-0.75882"/>
   <path d="m39.958 262.17c0-0.4191 0.33972-0.75883 0.75847-0.75883 0.41945 0 0.75918 0.33973 0.75918 0.75883s-0.33972 0.75882-0.75918 0.75882c-0.41875 0-0.75847-0.33972-0.75847-0.75882"/>
   <path d="m43.317 262.17c0-0.4191 0.33972-0.75883 0.75882-0.75883s0.75882 0.33973 0.75882 0.75883-0.33972 0.75882-0.75882 0.75882-0.75882-0.33972-0.75882-0.75882"/>
   <path d="m46.676 262.17c0-0.4191 0.33972-0.75883 0.75847-0.75883 0.41945 0 0.75918 0.33973 0.75918 0.75883s-0.33972 0.75882-0.75918 0.75882c-0.41875 0-0.75847-0.33972-0.75847-0.75882"/>
   <path d="m50.035 262.17c0-0.4191 0.33972-0.75883 0.75847-0.75883 0.41945 0 0.75918 0.33973 0.75918 0.75883s-0.33972 0.75882-0.75918 0.75882c-0.41875 0-0.75847-0.33972-0.75847-0.75882"/>
   <path d="m53.394 262.17c0-0.4191 0.33972-0.75883 0.75882-0.75883s0.75882 0.33973 0.75882 0.75883-0.33972 0.75882-0.75882 0.75882-0.75882-0.33972-0.75882-0.75882"/>
   <path d="m56.753 262.17c0-0.4191 0.33972-0.75883 0.75847-0.75883 0.41945 0 0.75918 0.33973 0.75918 0.75883s-0.33972 0.75882-0.75918 0.75882c-0.41875 0-0.75847-0.33972-0.75847-0.75882"/>
   <path d="m60.112 262.17c0-0.4191 0.33972-0.75883 0.75882-0.75883s0.75882 0.33973 0.75882 0.75883-0.33972 0.75882-0.75882 0.75882-0.75882-0.33972-0.75882-0.75882"/>
   <path d="m58.533 254.98c0-0.4191 0.33972-0.75883 0.75847-0.75883 0.41945 0 0.75918 0.33973 0.75918 0.75883s-0.33972 0.75882-0.75918 0.75882c-0.41875 0-0.75847-0.33972-0.75847-0.75882"/>
   <path d="m61.892 254.98c0-0.4191 0.33972-0.75883 0.75882-0.75883s0.75882 0.33973 0.75882 0.75883-0.33972 0.75882-0.75882 0.75882-0.75882-0.33972-0.75882-0.75882"/>
   <path d="m56.753 252.55c0-0.41875 0.33972-0.75883 0.75847-0.75883 0.41945 0 0.75918 0.34008 0.75918 0.75883 0 0.4191-0.33972 0.75882-0.75918 0.75882-0.41875 0-0.75847-0.33972-0.75847-0.75882"/>
   <path d="m60.112 252.55c0-0.41875 0.33972-0.75883 0.75882-0.75883s0.75882 0.34008 0.75882 0.75883c0 0.4191-0.33972 0.75882-0.75882 0.75882s-0.75882-0.33972-0.75882-0.75882"/>
   <path d="m58.533 250.16c0-0.4191 0.33972-0.75883 0.75847-0.75883 0.41945 0 0.75918 0.33973 0.75918 0.75883s-0.33972 0.75882-0.75918 0.75882c-0.41875 0-0.75847-0.33972-0.75847-0.75882"/>
   <path d="m61.892 250.16c0-0.4191 0.33972-0.75883 0.75882-0.75883s0.75882 0.33973 0.75882 0.75883-0.33972 0.75882-0.75882 0.75882-0.75882-0.33972-0.75882-0.75882"/>
   <path d="m42.292 248.75-2.0941-0.0162-6.0939-6.0942v-2.0747z"/>
   <path d="m46.697 248.75h-2.0789l-10.515-10.521 0.01693-2.0567z"/>
   <path d="m37.888 248.73h-2.0613l-1.723-1.723v-2.068z"/>
   <path d="m51.097 248.75h-2.0673l-14.91-14.915 2.0705-2e-3z"/>
   <path d="m55.513 248.75h-2.0683l-14.928-14.929 2.0824 8e-3z"/>
   <path d="m59.913 248.75h-2.062l-14.925-14.931 2.0694-3e-3z"/>
   <path d="m64.151 235.59v2.0733l-3.8276-3.8273h2.0736z"/>
   <path d="m64.151 248.51-2.65e-4 0.2353h-1.844l-14.905-14.91 2.0567-0.0173z"/>
   <path d="m64.151 244.1v2.0736l-12.338-12.338 2.0669-7e-3z"/>
   <path d="m64.151 239.69v2.0733l-7.9269-7.9266h2.0733z"/>
  </g>
 </g>
</svg>
