<svg width="33.635mm" height="33.848mm" version="1.1" viewBox="0 0 33.635 33.848" xmlns="http://www.w3.org/2000/svg">
 <g transform="translate(-136.64 -212.13)">
  <path d="m170.28 245.98h-33.635v-33.848h33.635z" fill="#231f20"/>
  <path d="m168.4 244.07h-29.81v-30.028h29.81z" fill="#748870"/>
  <g fill="#363434">
   <path d="m157.81 228.89h-8.5873v-1.4157h8.5873z"/>
   <path d="m157.81 225.88h-8.5873v-1.4157h8.5873z"/>
   <path d="m157.81 222.87h-8.5873v-1.4157h8.5873z"/>
   <path d="m157.81 219.85h-8.5669v-1.4157h8.5669z"/>
   <path d="m157.83 216.84h-8.6078v-1.4157h8.6078z"/>
   <path d="m155.35 239.52-0.7567 1.4157h-2.1495l-0.75671-1.4157z"/>
   <path d="m156.95 236.51-0.76835 1.416h-5.3188l-0.76835-1.416z"/>
   <path d="m154.34 241.47-0.81492 1.5547-0.8195-1.5547z"/>
   <path d="m157.81 234.91h-8.5873v-1.416h8.5873z"/>
   <path d="m157.81 231.9h-8.5669v-1.416h8.5669z"/>
   <path d="m150.86 237.92-1.6344-3.0117v-20.874h1.6344z"/>
   <path d="m154.34 241.47h-1.6344v-27.428h1.6344z"/>
   <path d="m157.81 234.91-1.6341 3.0117v-23.86h1.6341z"/>
  </g>
 </g>
</svg>
