<svg width="33.428mm" height="33.635mm" version="1.1" viewBox="0 0 33.428 33.635" xmlns="http://www.w3.org/2000/svg">
 <g transform="translate(96.089 -328.65)">
  <g>
   <path d="m-62.661 362.29h-33.428v-33.635h33.428z" fill="#231f20"/>
   <path d="m-64.571 360.41h-29.608v-29.81h29.608z" fill="#748870"/>
   <path d="m-92.372 330.6h-1.8038v14.887h1.8038z" fill="#363434"/>
  </g>
  <g transform="matrix(.35278 0 0 -.35278 -88.132 330.6)">
   <path d="m0 0h-5.113l-1e-3 -42.189h5.113z" fill="#363434"/>
  </g>
  <path d="m-83.654 330.6h-1.8038v14.886h1.8038z" fill="#363434"/>
  <path d="m-79.364 330.6h-1.8157v14.883h1.8157z" fill="#363434"/>
  <g transform="matrix(.35278 0 0 -.35278 -92.604 330.6)">
   <path d="m0 0-4.465-0.01 0.01-3.069 37.678-39.12h4.307l-0.033 3.086z" fill="#363434"/>
  </g>
  <g transform="matrix(.35278 0 0 -.35278 -85.051 330.6)">
   <path d="m0 0-7.414 8e-3 23.469-24.48 0.033 7.691z" fill="#363434"/>
  </g>
  <g transform="matrix(.35278 0 0 -.35278 -94.198 336.9)">
   <path d="m0 0 0.063-7.791 16.072-16.541h7.191z" fill="#363434"/>
  </g>
  <g transform="matrix(.35278 0 0 -.35278 -77.548 345.5)">
   <path d="m0 0-5.146 0.041 0.031-42.291h5.115z" fill="#363434"/>
  </g>
  <path d="m-73.308 345.48h-1.8041v14.927h1.8041z" fill="#363434"/>
  <g transform="matrix(.35278 0 0 -.35278 -68.829 345.48)">
   <path d="m0 0h-5.115l1e-3 -42.291h5.115z" fill="#363434"/>
  </g>
  <path d="m-64.55 345.48h-1.8041v14.924h1.8041z" fill="#363434"/>
  <g transform="matrix(.35278 0 0 -.35278 -77.781 345.5)">
   <path d="m0 0-4.488 0.041 0.089-3.179 37.7-39.133 4.204 0.021v3.137z" fill="#363434"/>
  </g>
  <g transform="matrix(.35278 0 0 -.35278 -70.24 345.48)">
   <path d="m0 0h-7.408l23.506-24.513 0.032 7.692z" fill="#363434"/>
  </g>
  <g transform="matrix(.35278 0 0 -.35278 -79.375 351.8)">
   <path d="m0 0 0.062-7.791 16.127-16.592h7.193z" fill="#363434"/>
  </g>
 </g>
</svg>
