<svg width="33.849mm" height="33.635mm" version="1.1" viewBox="0 0 33.849 33.635" xmlns="http://www.w3.org/2000/svg">
 <g transform="translate(-68.498 18.329)">
  <path d="m102.35 15.305h-33.849v-33.635h33.849z" fill="#231f20"/>
  <path d="m100.44 13.429h-30.029v-29.81h30.029z" fill="#748870"/>
  <g fill="#363434">
   <path d="m76.461 13.429h-1.4975v-29.81h1.4975z"/>
   <path d="m79.646 13.43h-1.4972v-29.847h1.4972z"/>
   <path d="m73.276 13.429h-1.4975v-29.81h1.4975z"/>
   <path d="m82.832 13.43h-1.4972v-29.883h1.4972z"/>
   <path d="m86.017 13.429h-1.4972v-29.846h1.4972z"/>
   <path d="m89.202 13.429h-1.4975v-29.846h1.4975z"/>
   <path d="m92.387 13.429h-1.4972v-29.81h1.4972z"/>
   <path d="m95.573 13.429h-1.4972v-29.81h1.4972z"/>
   <path d="m98.758 13.429h-1.4972v-29.81h1.4972z"/>
   <path d="m85.258 13.43-14.849-20.109v-9.7035l14.849 19.461 15.179-19.461v9.7554z"/>
  </g>
  <path d="m85.258 12.589-14.849-20.109v-8.0208l14.849 19.461 15.179-19.461v8.0726z" fill="#748870"/>
  <g fill="#363434">
   <path d="m84.489 9.9513c0-0.41875 0.34008-0.75847 0.75882-0.75847 0.4191 0 0.75882 0.33972 0.75882 0.75847 0 0.41875-0.33972 0.75883-0.75882 0.75883-0.41875 0-0.75882-0.34008-0.75882-0.75883"/>
   <path d="m84.489 6.2451c0-0.41875 0.34008-0.75847 0.75882-0.75847 0.4191 0 0.75882 0.33972 0.75882 0.75847 0 0.4191-0.33972 0.75882-0.75882 0.75882-0.41875 0-0.75882-0.33972-0.75882-0.75882"/>
   <path d="m81.726 6.2451c0-0.41875 0.33972-0.75847 0.75882-0.75847s0.75882 0.33972 0.75882 0.75847c0 0.4191-0.33972 0.75882-0.75882 0.75882s-0.75882-0.33972-0.75882-0.75882"/>
   <path d="m81.726 2.5388c0-0.41875 0.33972-0.75847 0.75882-0.75847s0.75882 0.33972 0.75882 0.75847c0 0.4191-0.33972 0.75882-0.75882 0.75882s-0.75882-0.33972-0.75882-0.75882"/>
   <path d="m78.963 2.5388c0-0.41875 0.33972-0.75847 0.75882-0.75847s0.75882 0.33972 0.75882 0.75847c0 0.4191-0.33972 0.75882-0.75882 0.75882s-0.75882-0.33972-0.75882-0.75882"/>
   <path d="m78.963-1.1671c0-0.4191 0.33972-0.75882 0.75882-0.75882s0.75882 0.33972 0.75882 0.75882c0 0.41875-0.33972 0.75847-0.75882 0.75847s-0.75882-0.33972-0.75882-0.75847"/>
   <path d="m76.2-1.1671c0-0.4191 0.33972-0.75882 0.75847-0.75882 0.41945 0 0.75918 0.33972 0.75918 0.75882 0 0.41875-0.33972 0.75847-0.75918 0.75847-0.41875 0-0.75847-0.33972-0.75847-0.75847"/>
   <path d="m76.2-4.8733c0-0.4191 0.33972-0.75882 0.75847-0.75882 0.41945 0 0.75918 0.33972 0.75918 0.75882 0 0.41875-0.33972 0.75847-0.75918 0.75847-0.41875 0-0.75847-0.33972-0.75847-0.75847"/>
   <path d="m73.437-4.8733c0-0.4191 0.33972-0.75882 0.75847-0.75882 0.41945 0 0.75918 0.33972 0.75918 0.75882 0 0.41875-0.33972 0.75847-0.75918 0.75847-0.41875 0-0.75847-0.33972-0.75847-0.75847"/>
   <path d="m73.437-8.5795c0-0.41875 0.33972-0.75847 0.75847-0.75847 0.41945 0 0.75918 0.33972 0.75918 0.75847 0 0.41875-0.33972 0.75882-0.75918 0.75882-0.41875 0-0.75847-0.34008-0.75847-0.75882"/>
   <path d="m70.674-8.5795c0-0.41875 0.33972-0.75847 0.75882-0.75847s0.75882 0.33972 0.75882 0.75847c0 0.41875-0.33972 0.75882-0.75882 0.75882s-0.75882-0.34008-0.75882-0.75882"/>
   <path d="m70.674-12.286c0-0.41875 0.33972-0.75847 0.75882-0.75847s0.75882 0.33972 0.75882 0.75847c0 0.4191-0.33972 0.75882-0.75882 0.75882s-0.75882-0.33972-0.75882-0.75882"/>
   <path d="m89.018 6.2451c0-0.41875-0.33972-0.75847-0.75847-0.75847-0.41945 0-0.75918 0.33972-0.75918 0.75847 0 0.4191 0.33972 0.75882 0.75918 0.75882 0.41875 0 0.75847-0.33972 0.75847-0.75882"/>
   <path d="m89.018 2.5388c0-0.41875-0.33972-0.75847-0.75847-0.75847-0.41945 0-0.75918 0.33972-0.75918 0.75847 0 0.4191 0.33972 0.75882 0.75918 0.75882 0.41875 0 0.75847-0.33972 0.75847-0.75882"/>
   <path d="m91.781 2.5388c0-0.41875-0.33972-0.75847-0.75847-0.75847-0.4191 0-0.75918 0.33972-0.75918 0.75847 0 0.4191 0.34008 0.75882 0.75918 0.75882 0.41875 0 0.75847-0.33972 0.75847-0.75882"/>
   <path d="m91.781-1.1671c0-0.4191-0.33972-0.75882-0.75847-0.75882-0.4191 0-0.75918 0.33972-0.75918 0.75882 0 0.41875 0.34008 0.75847 0.75918 0.75847 0.41875 0 0.75847-0.33972 0.75847-0.75847"/>
   <path d="m94.544-1.1671c0-0.4191-0.33972-0.75882-0.75882-0.75882s-0.75882 0.33972-0.75882 0.75882c0 0.41875 0.33972 0.75847 0.75882 0.75847s0.75882-0.33972 0.75882-0.75847"/>
   <path d="m94.544-4.8733c0-0.4191-0.33972-0.75882-0.75882-0.75882s-0.75882 0.33972-0.75882 0.75882c0 0.41875 0.33972 0.75847 0.75882 0.75847s0.75882-0.33972 0.75882-0.75847"/>
   <path d="m97.307-4.8733c0-0.4191-0.33972-0.75882-0.75882-0.75882s-0.75882 0.33972-0.75882 0.75882c0 0.41875 0.33972 0.75847 0.75882 0.75847s0.75882-0.33972 0.75882-0.75847"/>
   <path d="m97.307-8.5795c0-0.41875-0.33972-0.75847-0.75882-0.75847s-0.75882 0.33972-0.75882 0.75847c0 0.41875 0.33972 0.75882 0.75882 0.75882s0.75882-0.34008 0.75882-0.75882"/>
   <path d="m100.07-8.5795c0-0.41875-0.33972-0.75847-0.75882-0.75847s-0.75882 0.33972-0.75882 0.75847c0 0.41875 0.33972 0.75882 0.75882 0.75882s0.75882-0.34008 0.75882-0.75882"/>
   <path d="m100.07-12.286c0-0.41875-0.33972-0.75847-0.75882-0.75847s-0.75882 0.33972-0.75882 0.75847c0 0.4191 0.33972 0.75882 0.75882 0.75882s0.75882-0.33972 0.75882-0.75882"/>
  </g>
 </g>
</svg>
