<svg width="33.444mm" height="33.656mm" version="1.1" viewBox="0 0 33.444 33.656" xmlns="http://www.w3.org/2000/svg">
 <g transform="translate(-223.67 -114.71)">
  <path d="m257.11 148.36h-33.444v-33.656h33.444z" fill="#231f20"/>
  <path d="m255.25 146.46h-29.641v-29.858h29.641z" fill="#748870"/>
  <g fill="#363434">
   <path d="m255.25 141.86h-29.641v-1.4965h29.641z"/>
   <path d="m255.25 138.68h-29.641v-1.4965h29.641z"/>
   <path d="m255.25 145.05h-29.641v-1.4968h29.641z"/>
  </g>
  <g transform="matrix(.35278 0 0 -.35278 226.88 132.31)">
   <path d="m0 0h-3.604v4.242h3.604l-2.792-2.121z" fill="#363434"/>
  </g>
  <g transform="matrix(.35278 0 0 -.35278 251.69 129.13)">
   <path d="m0 0h10.091v4.243h-16.06z" fill="#363434"/>
  </g>
  <g transform="matrix(.35278 0 0 -.35278 229.42 129.13)">
   <path d="m0 0h-10.804v4.243l17.031 0.043z" fill="#363434"/>
  </g>
  <g transform="matrix(.35278 0 0 -.35278 254.12 130.81)">
   <path d="m0 0h3.2v-4.242h-3.399l2.294 2.139z" fill="#363434"/>
  </g>
  <g transform="matrix(.35278 0 0 -.35278 251.63 134)">
   <path d="m0 0h10.255v-4.243l-16.53 1e-3z" fill="#363434"/>
  </g>
  <g transform="matrix(.35278 0 0 -.35278 229.3 134)">
   <path d="m0 0h-10.456v-4.243h16.613z" fill="#363434"/>
  </g>
  <g fill="#363434">
   <path d="m255.25 122.76h-29.641v-1.4968h29.641z"/>
   <path d="m255.25 125.94h-29.641v-1.4965h29.641z"/>
   <path d="m255.25 119.57h-29.641v-1.4968h29.641z"/>
  </g>
  <g transform="matrix(.35278 0 0 -.35278 249.5 127.61)">
   <path d="m0 0 16.404-11.169-16.404-11.169h-51.515l-16.404 11.169 16.404 11.169z" fill="#363434"/>
  </g>
  <g transform="matrix(.35278 0 0 -.35278 249.16 128.37)">
   <path d="m0 0 13.242-9.037-13.242-9.037h-49.581l-13.241 9.037 13.241 9.037z" fill="#748870"/>
  </g>
 </g>
</svg>
