<svg width="33.848mm" height="33.635mm" version="1.1" viewBox="0 0 33.848 33.635" xmlns="http://www.w3.org/2000/svg">
 <g transform="translate(-88.909 -131.35)">
  <path d="m122.76 164.98h-33.848v-33.635h33.848z" fill="#231f20"/>
  <path d="m120.85 163.11h-30.029v-29.81h30.029z" fill="#748870"/>
  <g fill="#363434">
   <path d="m97.755 163.1h-1.6697v-14.473h1.6697z"/>
   <path d="m101.31 163.09h-1.6701v-14.473h1.6701z"/>
   <path d="m94.096 163.1h-1.67v-14.473h1.67z"/>
   <path d="m104.86 163.09h-1.6697v-14.49h1.6697z"/>
   <path d="m108.41 163.1h-1.6697v-14.519h1.6697z"/>
   <path d="m111.96 163.09h-1.67v-14.455h1.67z"/>
   <path d="m115.52 163.1h-1.6697v-14.473h1.6697z"/>
   <path d="m119.07 163.09h-1.6697v-14.455h1.6697z"/>
   <path d="m120.85 158.5h-30.029v-1.3995h30.029z"/>
   <path d="m120.89 155.52h-30.071v-1.3995h30.071z"/>
   <path d="m120.85 161.48h-30.029v-1.3995h30.029z"/>
   <path d="m120.85 152.54h-30.029v-1.3995h30.029z"/>
   <path d="m120.85 149.57h-30.029v-1.3995h30.029z"/>
   <path d="m91.587 144.33c0-0.41875 0.33972-0.75883 0.75882-0.75883 0.41875 0 0.75882 0.34008 0.75882 0.75883 0 0.4191-0.34008 0.75882-0.75882 0.75882-0.4191 0-0.75882-0.33972-0.75882-0.75882"/>
   <path d="m94.946 144.33c0-0.41875 0.33972-0.75883 0.75882-0.75883s0.75882 0.34008 0.75882 0.75883c0 0.4191-0.33972 0.75882-0.75882 0.75882s-0.75882-0.33972-0.75882-0.75882"/>
   <path d="m98.305 144.33c0-0.41875 0.33972-0.75883 0.75847-0.75883 0.41945 0 0.75918 0.34008 0.75918 0.75883 0 0.4191-0.33972 0.75882-0.75918 0.75882-0.41875 0-0.75847-0.33972-0.75847-0.75882"/>
   <path d="m101.66 144.33c0-0.41875 0.33972-0.75883 0.75882-0.75883s0.75883 0.34008 0.75883 0.75883c0 0.4191-0.33973 0.75882-0.75883 0.75882s-0.75882-0.33972-0.75882-0.75882"/>
   <path d="m105.02 144.33c0-0.41875 0.34008-0.75883 0.75882-0.75883 0.4191 0 0.75883 0.34008 0.75883 0.75883 0 0.4191-0.33973 0.75882-0.75883 0.75882-0.41874 0-0.75882-0.33972-0.75882-0.75882"/>
   <path d="m108.38 144.33c0-0.41875 0.33973-0.75883 0.75848-0.75883 0.41945 0 0.75917 0.34008 0.75917 0.75883 0 0.4191-0.33972 0.75882-0.75917 0.75882-0.41875 0-0.75848-0.33972-0.75848-0.75882"/>
   <path d="m111.74 144.33c0-0.41875 0.33972-0.75883 0.75882-0.75883s0.75883 0.34008 0.75883 0.75883c0 0.4191-0.33973 0.75882-0.75883 0.75882s-0.75882-0.33972-0.75882-0.75882"/>
   <path d="m93.166 141.9c0-0.4191 0.33937-0.75883 0.75882-0.75883 0.41875 0 0.75847 0.33973 0.75847 0.75883s-0.33972 0.75882-0.75847 0.75882c-0.41945 0-0.75882-0.33972-0.75882-0.75882"/>
   <path d="m96.525 141.9c0-0.4191 0.33972-0.75883 0.75847-0.75883 0.41945 0 0.75918 0.33973 0.75918 0.75883s-0.33972 0.75882-0.75918 0.75882c-0.41875 0-0.75847-0.33972-0.75847-0.75882"/>
   <path d="m99.884 141.9c0-0.4191 0.33972-0.75883 0.75882-0.75883s0.75883 0.33973 0.75883 0.75883-0.33973 0.75882-0.75883 0.75882-0.75882-0.33972-0.75882-0.75882"/>
   <path d="m103.24 141.9c0-0.4191 0.33973-0.75883 0.75847-0.75883 0.4191 0 0.75918 0.33973 0.75918 0.75883s-0.34008 0.75882-0.75918 0.75882c-0.41874 0-0.75847-0.33972-0.75847-0.75882"/>
   <path d="m106.6 141.9c0-0.4191 0.33973-0.75883 0.75848-0.75883 0.41945 0 0.75917 0.33973 0.75917 0.75883s-0.33972 0.75882-0.75917 0.75882c-0.41875 0-0.75848-0.33972-0.75848-0.75882"/>
   <path d="m109.96 141.9c0-0.4191 0.33972-0.75883 0.75882-0.75883s0.75883 0.33973 0.75883 0.75883-0.33973 0.75882-0.75883 0.75882-0.75882-0.33972-0.75882-0.75882"/>
   <path d="m91.587 139.52c0-0.4191 0.33972-0.75883 0.75882-0.75883 0.41875 0 0.75882 0.33973 0.75882 0.75883 0 0.41874-0.34008 0.75882-0.75882 0.75882-0.4191 0-0.75882-0.34008-0.75882-0.75882"/>
   <path d="m94.946 139.52c0-0.4191 0.33972-0.75883 0.75882-0.75883s0.75882 0.33973 0.75882 0.75883c0 0.41874-0.33972 0.75882-0.75882 0.75882s-0.75882-0.34008-0.75882-0.75882"/>
   <path d="m98.305 139.52c0-0.4191 0.33972-0.75883 0.75847-0.75883 0.41945 0 0.75918 0.33973 0.75918 0.75883 0 0.41874-0.33972 0.75882-0.75918 0.75882-0.41875 0-0.75847-0.34008-0.75847-0.75882"/>
   <path d="m101.66 139.52c0-0.4191 0.33972-0.75883 0.75882-0.75883s0.75883 0.33973 0.75883 0.75883c0 0.41874-0.33973 0.75882-0.75883 0.75882s-0.75882-0.34008-0.75882-0.75882"/>
   <path d="m105.02 139.52c0-0.4191 0.34008-0.75883 0.75882-0.75883 0.4191 0 0.75883 0.33973 0.75883 0.75883 0 0.41874-0.33973 0.75882-0.75883 0.75882-0.41874 0-0.75882-0.34008-0.75882-0.75882"/>
   <path d="m108.38 139.52c0-0.4191 0.33973-0.75883 0.75848-0.75883 0.41945 0 0.75917 0.33973 0.75917 0.75883 0 0.41874-0.33972 0.75882-0.75917 0.75882-0.41875 0-0.75848-0.34008-0.75848-0.75882"/>
   <path d="m111.74 139.52c0-0.4191 0.33972-0.75883 0.75882-0.75883s0.75883 0.33973 0.75883 0.75883c0 0.41874-0.33973 0.75882-0.75883 0.75882s-0.75882-0.34008-0.75882-0.75882"/>
   <path d="m93.166 137.08c0-0.4191 0.33937-0.75883 0.75882-0.75883 0.41875 0 0.75847 0.33973 0.75847 0.75883s-0.33972 0.75882-0.75847 0.75882c-0.41945 0-0.75882-0.33972-0.75882-0.75882"/>
   <path d="m96.525 137.08c0-0.4191 0.33972-0.75883 0.75847-0.75883 0.41945 0 0.75918 0.33973 0.75918 0.75883s-0.33972 0.75882-0.75918 0.75882c-0.41875 0-0.75847-0.33972-0.75847-0.75882"/>
   <path d="m99.884 137.08c0-0.4191 0.33972-0.75883 0.75882-0.75883s0.75883 0.33973 0.75883 0.75883-0.33973 0.75882-0.75883 0.75882-0.75882-0.33972-0.75882-0.75882"/>
   <path d="m103.24 137.08c0-0.4191 0.33973-0.75883 0.75847-0.75883 0.4191 0 0.75918 0.33973 0.75918 0.75883s-0.34008 0.75882-0.75918 0.75882c-0.41874 0-0.75847-0.33972-0.75847-0.75882"/>
   <path d="m106.6 137.08c0-0.4191 0.33973-0.75883 0.75848-0.75883 0.41945 0 0.75917 0.33973 0.75917 0.75883s-0.33972 0.75882-0.75917 0.75882c-0.41875 0-0.75848-0.33972-0.75848-0.75882"/>
   <path d="m109.96 137.08c0-0.4191 0.33972-0.75883 0.75882-0.75883s0.75883 0.33973 0.75883 0.75883-0.33973 0.75882-0.75883 0.75882-0.75882-0.33972-0.75882-0.75882"/>
   <path d="m91.587 134.7c0-0.4191 0.33972-0.75883 0.75882-0.75883 0.41875 0 0.75882 0.33973 0.75882 0.75883s-0.34008 0.75882-0.75882 0.75882c-0.4191 0-0.75882-0.33972-0.75882-0.75882"/>
   <path d="m94.946 134.7c0-0.4191 0.33972-0.75883 0.75882-0.75883s0.75882 0.33973 0.75882 0.75883-0.33972 0.75882-0.75882 0.75882-0.75882-0.33972-0.75882-0.75882"/>
   <path d="m98.305 134.7c0-0.4191 0.33972-0.75883 0.75847-0.75883 0.41945 0 0.75918 0.33973 0.75918 0.75883s-0.33972 0.75882-0.75918 0.75882c-0.41875 0-0.75847-0.33972-0.75847-0.75882"/>
   <path d="m101.66 134.7c0-0.4191 0.33972-0.75883 0.75882-0.75883s0.75883 0.33973 0.75883 0.75883-0.33973 0.75882-0.75883 0.75882-0.75882-0.33972-0.75882-0.75882"/>
   <path d="m105.02 134.7c0-0.4191 0.34008-0.75883 0.75882-0.75883 0.4191 0 0.75883 0.33973 0.75883 0.75883s-0.33973 0.75882-0.75883 0.75882c-0.41874 0-0.75882-0.33972-0.75882-0.75882"/>
   <path d="m108.38 134.7c0-0.4191 0.33973-0.75883 0.75848-0.75883 0.41945 0 0.75917 0.33973 0.75917 0.75883s-0.33972 0.75882-0.75917 0.75882c-0.41875 0-0.75848-0.33972-0.75848-0.75882"/>
   <path d="m111.74 134.7c0-0.4191 0.33972-0.75883 0.75882-0.75883s0.75883 0.33973 0.75883 0.75883-0.33973 0.75882-0.75883 0.75882-0.75882-0.33972-0.75882-0.75882"/>
   <path d="m115.1 144.33c0-0.41875 0.33973-0.75883 0.75847-0.75883 0.41946 0 0.75918 0.34008 0.75918 0.75883 0 0.4191-0.33972 0.75882-0.75918 0.75882-0.41874 0-0.75847-0.33972-0.75847-0.75882"/>
   <path d="m118.46 144.33c0-0.41875 0.33973-0.75883 0.75883-0.75883s0.75882 0.34008 0.75882 0.75883c0 0.4191-0.33972 0.75882-0.75882 0.75882s-0.75883-0.33972-0.75883-0.75882"/>
   <path d="m113.32 141.9c0-0.4191 0.33973-0.75883 0.75848-0.75883 0.41945 0 0.75917 0.33973 0.75917 0.75883s-0.33972 0.75882-0.75917 0.75882c-0.41875 0-0.75848-0.33972-0.75848-0.75882"/>
   <path d="m116.68 141.9c0-0.4191 0.33973-0.75883 0.75883-0.75883s0.75882 0.33973 0.75882 0.75883-0.33972 0.75882-0.75882 0.75882-0.75883-0.33972-0.75883-0.75882"/>
   <path d="m93.166 146.71c0-0.4191 0.33937-0.75882 0.75882-0.75882 0.41875 0 0.75847 0.33972 0.75847 0.75882 0 0.41875-0.33972 0.75883-0.75847 0.75883-0.41945 0-0.75882-0.34008-0.75882-0.75883"/>
   <path d="m96.525 146.71c0-0.4191 0.33972-0.75882 0.75847-0.75882 0.41945 0 0.75918 0.33972 0.75918 0.75882 0 0.41875-0.33972 0.75883-0.75918 0.75883-0.41875 0-0.75847-0.34008-0.75847-0.75883"/>
   <path d="m99.884 146.71c0-0.4191 0.33972-0.75882 0.75882-0.75882s0.75883 0.33972 0.75883 0.75882c0 0.41875-0.33973 0.75883-0.75883 0.75883s-0.75882-0.34008-0.75882-0.75883"/>
   <path d="m103.24 146.71c0-0.4191 0.33973-0.75882 0.75847-0.75882 0.4191 0 0.75918 0.33972 0.75918 0.75882 0 0.41875-0.34008 0.75883-0.75918 0.75883-0.41874 0-0.75847-0.34008-0.75847-0.75883"/>
   <path d="m106.6 146.71c0-0.4191 0.33973-0.75882 0.75848-0.75882 0.41945 0 0.75917 0.33972 0.75917 0.75882 0 0.41875-0.33972 0.75883-0.75917 0.75883-0.41875 0-0.75848-0.34008-0.75848-0.75883"/>
   <path d="m109.96 146.71c0-0.4191 0.33972-0.75882 0.75882-0.75882s0.75883 0.33972 0.75883 0.75882c0 0.41875-0.33973 0.75883-0.75883 0.75883s-0.75882-0.34008-0.75882-0.75883"/>
   <path d="m113.32 146.71c0-0.4191 0.33973-0.75882 0.75848-0.75882 0.41945 0 0.75917 0.33972 0.75917 0.75882 0 0.41875-0.33972 0.75883-0.75917 0.75883-0.41875 0-0.75848-0.34008-0.75848-0.75883"/>
   <path d="m116.68 146.71c0-0.4191 0.33973-0.75882 0.75883-0.75882s0.75882 0.33972 0.75882 0.75882c0 0.41875-0.33972 0.75883-0.75882 0.75883s-0.75883-0.34008-0.75883-0.75883"/>
   <path d="m115.1 139.52c0-0.4191 0.33973-0.75883 0.75847-0.75883 0.41946 0 0.75918 0.33973 0.75918 0.75883 0 0.41874-0.33972 0.75882-0.75918 0.75882-0.41874 0-0.75847-0.34008-0.75847-0.75882"/>
   <path d="m118.46 139.52c0-0.4191 0.33973-0.75883 0.75883-0.75883s0.75882 0.33973 0.75882 0.75883c0 0.41874-0.33972 0.75882-0.75882 0.75882s-0.75883-0.34008-0.75883-0.75882"/>
   <path d="m113.32 137.08c0-0.4191 0.33973-0.75883 0.75848-0.75883 0.41945 0 0.75917 0.33973 0.75917 0.75883s-0.33972 0.75882-0.75917 0.75882c-0.41875 0-0.75848-0.33972-0.75848-0.75882"/>
   <path d="m116.68 137.08c0-0.4191 0.33973-0.75883 0.75883-0.75883s0.75882 0.33973 0.75882 0.75883-0.33972 0.75882-0.75882 0.75882-0.75883-0.33972-0.75883-0.75882"/>
   <path d="m115.1 134.7c0-0.4191 0.33973-0.75883 0.75847-0.75883 0.41946 0 0.75918 0.33973 0.75918 0.75883s-0.33972 0.75882-0.75918 0.75882c-0.41874 0-0.75847-0.33972-0.75847-0.75882"/>
   <path d="m118.46 134.7c0-0.4191 0.33973-0.75883 0.75883-0.75883s0.75882 0.33973 0.75882 0.75883-0.33972 0.75882-0.75882 0.75882-0.75883-0.33972-0.75883-0.75882"/>
  </g>
 </g>
</svg>
