<svg width="33.635mm" height="33.848mm" version="1.1" viewBox="0 0 33.635 33.848" xmlns="http://www.w3.org/2000/svg">
 <g transform="translate(-89.016 -131.24)">
  <path d="m122.65 165.09h-33.635v-33.848h33.635z" fill="#231f20"/>
  <path d="m120.77 163.18h-29.81v-30.028h29.81z" fill="#748870"/>
  <g fill="#363434">
   <path d="m120.77 148.12h-14.905v-1.4048h14.905z"/>
   <path d="m120.77 145.13h-14.905v-1.4044h14.905z"/>
   <path d="m120.77 142.14h-14.905v-1.4048h14.905z"/>
   <path d="m120.77 139.16h-14.87v-1.4048h14.87z"/>
   <path d="m120.81 136.17h-14.941v-1.4048h14.941z"/>
   <path d="m105.83 161.48h-14.905v-1.4044h14.905z"/>
   <path d="m105.83 158.49h-14.905v-1.4044h14.905z"/>
   <path d="m105.83 155.5h-14.905v-1.4048h14.905z"/>
   <path d="m105.83 152.51h-14.87v-1.4048h14.87z"/>
   <path d="m105.87 149.52h-14.94v-1.4044h14.94z"/>
  </g>
 </g>
</svg>
